<?xml version="1.0" encoding="UTF-8" standalone="no"?>
<svg
   xmlns:dc="http://purl.org/dc/elements/1.1/"
   xmlns:cc="http://creativecommons.org/ns#"
   xmlns:rdf="http://www.w3.org/1999/02/22-rdf-syntax-ns#"
   xmlns:svg="http://www.w3.org/2000/svg"
   xmlns="http://www.w3.org/2000/svg"
   id="svg8"
   version="1.1"
   viewBox="0 0 270.93333 270.93334"
   height="1024"
   width="1024">
  <defs
     id="defs2" />
  <metadata
     id="metadata5">
    <rdf:RDF>
      <cc:Work
         rdf:about="">
        <dc:format>image/svg+xml</dc:format>
        <dc:type
           rdf:resource="http://purl.org/dc/dcmitype/StillImage" />
        <dc:title></dc:title>
      </cc:Work>
    </rdf:RDF>
  </metadata>
  <g
     transform="translate(0,-26.06665)"
     style="display:none"
     id="layer2">
    <rect
       y="24.857143"
       x="-0.75595236"
       height="271.3869"
       width="272.14285"
       id="rect840"
       style="opacity:1;fill:#2afb7e;fill-opacity:1;fill-rule:nonzero;stroke:none;stroke-width:2.23118258;stroke-linejoin:miter;stroke-miterlimit:4;stroke-dasharray:none;stroke-dashoffset:119.96220398;stroke-opacity:1" />
  </g>
  <g
     transform="translate(0,-26.06665)"
     style="display:inline;opacity:1"
     id="layer1">
    <circle
       r="33.780327"
       cy="113.16321"
       cx="132.95274"
       id="path842"
       style="display:inline;opacity:1;fill:#cccccc;fill-opacity:1;stroke:none;stroke-width:2.94216919;stroke-linejoin:miter;stroke-miterlimit:4;stroke-dasharray:none;stroke-dashoffset:119.96220398;stroke-opacity:1" />
    <circle
       r="27.351982"
       style="display:inline;opacity:1;fill:#f7f7f7;fill-opacity:1;stroke:none;stroke-width:2.38227892;stroke-linejoin:miter;stroke-miterlimit:4;stroke-dasharray:none;stroke-dashoffset:119.96220398;stroke-opacity:1"
       id="circle844"
       cx="134.89384"
       cy="111.92796" />
    <g
       id="text849"
       style="font-style:normal;font-variant:normal;font-weight:bold;font-stretch:normal;font-size:101.22634888px;line-height:1.25;font-family:Sawasdee;-inkscape-font-specification:'Sawasdee, Bold';font-variant-ligatures:normal;font-variant-caps:normal;font-variant-numeric:normal;font-feature-settings:normal;text-align:start;letter-spacing:0px;word-spacing:0px;writing-mode:lr-tb;text-anchor:start;display:inline;fill:#000000;fill-opacity:1;stroke:none;stroke-width:1.17870605"
       aria-label="O">
      <path
         id="path839"
         style="font-style:normal;font-variant:normal;font-weight:bold;font-stretch:normal;font-size:101.22634888px;font-family:Sawasdee;-inkscape-font-specification:'Sawasdee, Bold';font-variant-ligatures:normal;font-variant-caps:normal;font-variant-numeric:normal;font-feature-settings:normal;text-align:start;writing-mode:lr-tb;text-anchor:start;fill:#000000;stroke-width:1.17870605"
         d="m 167.84642,99.037931 q 3.06447,6.969199 3.06447,14.630369 0,7.66118 -3.06447,14.63037 -3.01504,6.91977 -8.20487,11.91189 -5.1404,4.99212 -12.25788,7.95774 -7.06805,2.96561 -14.82807,2.96561 -7.80946,0 -14.97636,-2.96561 -7.11748,-2.96562 -12.30731,-7.95774 -5.1404,-4.99212 -8.204869,-11.91189 -3.06447,-6.96919 -3.06447,-14.63037 0,-7.66117 3.06447,-14.630369 3.064469,-6.969197 8.204869,-12.010743 5.18983,-5.041547 12.30731,-8.007163 7.1669,-2.965615 14.97636,-2.965615 7.76002,0 14.82807,2.965615 7.11748,2.965616 12.25788,8.007163 5.18983,5.041546 8.20487,12.010743 z M 101.9109,113.6683 q 0,6.07951 2.37249,11.61533 2.42192,5.53582 6.47493,9.58882 4.10244,4.00359 9.78653,6.37608 5.73353,2.37249 12.01075,2.37249 8.30372,0 15.32234,-4.00358 7.06805,-4.05301 11.17049,-10.92335 4.10243,-6.91977 4.10243,-15.02579 0,-8.15544 -4.10243,-15.075211 -4.10244,-6.91977 -11.17049,-10.923351 -7.01862,-4.003581 -15.32234,-4.003581 -6.27722,0 -11.96132,2.372492 -5.6841,2.372493 -9.78653,6.376074 -4.10244,4.003581 -6.52436,9.588827 -2.37249,5.53581 -2.37249,11.66475 z" />
    </g>
    <rect
       ry="3.4053385"
       y="81.127449"
       x="130.13242"
       height="31.407873"
       width="7.4345388"
       id="rect981"
       style="display:inline;opacity:1;fill:#000000;fill-opacity:1;stroke:none;stroke-width:4.69640541;stroke-linejoin:miter;stroke-miterlimit:4;stroke-dasharray:none;stroke-dashoffset:119.96220398;stroke-opacity:1" />
    <rect
       ry="3.388906"
       y="87.088577"
       x="151.99135"
       height="30.383293"
       width="6.3412247"
       id="rect983"
       style="display:inline;opacity:1;fill:#000000;fill-opacity:1;stroke:none;stroke-width:4.96178246;stroke-linejoin:miter;stroke-miterlimit:4;stroke-dasharray:none;stroke-dashoffset:119.96220398;stroke-opacity:1" />
    <rect
       ry="3.8609009"
       y="75.99247"
       x="81.509354"
       height="7.7218018"
       width="53.07708"
       id="rect985"
       style="display:inline;opacity:1;fill:#000000;fill-opacity:1;stroke:none;stroke-width:5.13492537;stroke-linejoin:miter;stroke-miterlimit:4;stroke-dasharray:none;stroke-dashoffset:119.96220398;stroke-opacity:1" />
    <g
       id="text1097"
       style="font-style:normal;font-variant:normal;font-weight:bold;font-stretch:normal;font-size:101.22634888px;line-height:1.25;font-family:Sawasdee;-inkscape-font-specification:'Sawasdee, Bold';font-variant-ligatures:normal;font-variant-caps:normal;font-variant-numeric:normal;font-feature-settings:normal;text-align:start;letter-spacing:0px;word-spacing:0px;writing-mode:lr-tb;text-anchor:start;display:inline;fill:#000000;fill-opacity:1;stroke:none;stroke-width:1.5834229"
       transform="rotate(90)"
       aria-label="S">
      <path
         id="path843"
         style="font-style:normal;font-variant:normal;font-weight:bold;font-stretch:normal;font-size:101.22634888px;font-family:Sawasdee;-inkscape-font-specification:'Sawasdee, Bold';font-variant-ligatures:normal;font-variant-caps:normal;font-variant-numeric:normal;font-feature-settings:normal;text-align:start;writing-mode:lr-tb;text-anchor:start;fill:#000000;stroke-width:1.5834229"
         d="m 175.02052,-163.76751 -7.36462,2.52078 -0.54369,-1.63109 q -1.58166,-4.44843 -5.04155,-6.77149 -3.45988,-2.32307 -7.56232,-2.32307 -4.79441,0 -7.80945,3.06447 -3.01505,3.01504 -3.01505,7.36461 0,2.32307 1.18625,4.20129 1.23567,1.87823 3.26218,3.21275 2.0265,1.33453 4.69556,2.5702 2.66905,1.18625 5.58524,2.42192 2.91619,1.18625 5.83238,2.52078 2.91619,1.2851 5.58524,3.11389 2.66905,1.77937 4.69556,4.00358 2.0265,2.17479 3.21275,5.38754 1.23567,3.16332 1.23567,7.01862 0,6.57378 -3.50931,11.91189 -3.50931,5.28868 -9.09456,8.10602 -5.58524,2.76791 -11.96131,2.76791 -4.20129,0 -8.05659,-1.33453 -3.8553,-1.33453 -7.21633,-3.95415 -3.31161,-2.61963 -5.6841,-6.9692 -2.37249,-4.399 -3.16332,-10.03367 l -0.24714,-1.68051 7.76003,-0.93912 0.24713,1.58167 q 0.59313,4.00358 2.17479,7.11747 1.58166,3.06447 3.80587,4.89327 2.22421,1.77937 4.84384,2.71848 2.61963,0.88969 5.53582,0.88969 6.77149,0 11.76361,-4.25072 5.04154,-4.25072 5.04154,-11.0222 0,-3.6576 -1.97707,-6.42551 -1.92765,-2.7679 -5.04155,-4.49785 -3.06447,-1.77937 -6.82092,-3.3116 -3.75644,-1.58166 -7.56232,-3.26218 -3.75644,-1.68051 -6.87034,-3.75644 -3.06447,-2.07593 -5.04155,-5.38754 -1.92765,-3.36103 -1.92765,-7.76003 0,-7.46346 5.18983,-12.70272 5.18983,-5.28868 13.34527,-5.28868 6.47493,0 12.01075,3.75645 5.53581,3.75644 7.9083,10.57736 z" />
    </g>
    <circle
       r="6.0301032"
       cy="131.84332"
       cx="130.06326"
       id="path1099"
       style="display:inline;opacity:1;fill:#000000;fill-opacity:1;stroke:none;stroke-width:6.03785038;stroke-linejoin:miter;stroke-miterlimit:4;stroke-dasharray:none;stroke-dashoffset:119.96220398;stroke-opacity:1" />
    <circle
       style="display:inline;opacity:1;fill:#000000;fill-opacity:1;stroke:none;stroke-width:5.72821808;stroke-linejoin:miter;stroke-miterlimit:4;stroke-dasharray:none;stroke-dashoffset:119.96220398;stroke-opacity:1"
       id="circle1101"
       cx="159.60472"
       cy="173.14809"
       r="5.7208672" />
    <path
       id="path4664"
       d="m 126.12311,199.31258 c 0,0 4.99456,11.56906 7.17384,23.95966 2.1793,12.39067 0.93608,21.73272 0.93608,21.73272 l 12.00048,0.10377 c 0,0 2.61708,-1.3422 1.29614,-2.02294 -4.30344,-1.75455 -6.12646,-2.38889 -6.12646,-2.38889 0,0 0.87063,-8.51546 -1.29894,-18.59932 -1.9845,-9.22373 -4.22236,-15.67793 -4.22236,-15.67793 l 31.20897,-0.22429 c 0,0 2.62467,5.96484 5.07636,16.20608 2.45169,10.24123 2.56677,22.5423 2.56677,22.5423 l 12.98511,0.0834 c 0,0 2.68588,-1.64969 0.6239,-2.49604 -1.9033,-0.78123 -6.96845,-2.47978 -6.96845,-2.47978 0,0 -0.41146,-9.62812 -2.40498,-18.00349 -3.16961,-14.72099 -6.62851,-22.70858 -6.62851,-22.70858 z"
       style="display:inline;fill:#000000;stroke:none;stroke-width:0.36744231px;stroke-linecap:butt;stroke-linejoin:miter;stroke-opacity:1" />
  </g>
</svg>
