<?xml version="1.0" encoding="utf-8"?>
<!-- Generator: Adobe Illustrator 22.1.0, SVG Export Plug-In . SVG Version: 6.00 Build 0)  -->
<svg version="1.1" id="Layer_1" xmlns="http://www.w3.org/2000/svg" xmlns:xlink="http://www.w3.org/1999/xlink" x="0px" y="0px"
	 viewBox="0 0 2560 1600" style="enable-background:new 0 0 2560 1600;" xml:space="preserve">
<style type="text/css">
	.st0{fill:#3F51B5;}
	.st1{fill:#4D4D4D;}
	.st2{fill:#FFC10A;}
	.st3{fill:#785548;}
	.st4{fill:#673AB7;}
	.st5{fill:#2197F3;}
	.st6{fill:#11A9F3;}
	.st7{fill:#F44236;}
	.st8{fill:#4DAF50;}
	.st9{fill:#9C27B0;}
	.st10{fill:#8CC44A;}
	.st11{fill:#607C8B;}
	.st12{fill:#E92662;}
	.st13{fill:#FE9803;}
	.st14{fill:#16BCD4;}
	.st15{fill:#FE5723;}
</style>
<path class="st0" d="M284,326H144c-14.3,0-26-11.7-26-26v0c0-14.3,11.7-26,26-26h140c14.3,0,26,11.7,26,26v0
	C310,314.3,298.3,326,284,326z"/>
<path class="st1" d="M1490,326h-48c-14.3,0-26-11.7-26-26v0c0-14.3,11.7-26,26-26h48c14.3,0,26,11.7,26,26v0
	C1516,314.3,1504.3,326,1490,326z"/>
<path class="st1" d="M1572,892h-98c-14.3,0-26-11.7-26-26l0,0c0-14.3,11.7-26,26-26h98c14.3,0,26,11.7,26,26l0,0
	C1598,880.3,1586.3,892,1572,892z"/>
<path class="st1" d="M397,634H257c-14.3,0-26-11.7-26-26l0,0c0-14.3,11.7-26,26-26h140c14.3,0,26,11.7,26,26l0,0
	C423,622.3,411.3,634,397,634z"/>
<path class="st2" d="M959,970H819c-14.3,0-26-11.7-26-26l0,0c0-14.3,11.7-26,26-26h140c14.3,0,26,11.7,26,26l0,0
	C985,958.3,973.3,970,959,970z"/>
<path class="st1" d="M822,326H682c-14.3,0-26-11.7-26-26v0c0-14.3,11.7-26,26-26h140c14.3,0,26,11.7,26,26v0
	C848,314.3,836.3,326,822,326z"/>
<path class="st1" d="M1764,959h-140c-14.3,0-26-11.7-26-26l0,0c0-14.3,11.7-26,26-26h140c14.3,0,26,11.7,26,26l0,0
	C1790,947.3,1778.3,959,1764,959z"/>
<path class="st1" d="M1571,640h-140c-14.3,0-26-11.7-26-26l0,0c0-14.3,11.7-26,26-26h140c14.3,0,26,11.7,26,26l0,0
	C1597,628.3,1585.3,640,1571,640z"/>
<path class="st3" d="M1764,699h-140c-14.3,0-26-11.7-26-26l0,0c0-14.3,11.7-26,26-26h140c14.3,0,26,11.7,26,26l0,0
	C1790,687.3,1778.3,699,1764,699z"/>
<path class="st0" d="M1562,390h-140c-14.3,0-26-11.7-26-26v0c0-14.3,11.7-26,26-26h140c14.3,0,26,11.7,26,26v0
	C1588,378.3,1576.3,390,1562,390z"/>
<path class="st1" d="M1689,327h-140c-14.3,0-26-11.7-26-26v0c0-14.3,11.7-26,26-26h140c14.3,0,26,11.7,26,26v0
	C1715,315.3,1703.3,327,1689,327z"/>
<path class="st1" d="M2224,970h-140c-14.3,0-26-11.7-26-26l0,0c0-14.3,11.7-26,26-26h140c14.3,0,26,11.7,26,26l0,0
	C2250,958.3,2238.3,970,2224,970z"/>
<path class="st1" d="M451,326h-98c-14.3,0-26-11.7-26-26v0c0-14.3,11.7-26,26-26h98c14.3,0,26,11.7,26,26v0
	C477,314.3,465.3,326,451,326z"/>
<path class="st1" d="M242,390h-98c-14.3,0-26-11.7-26-26v0c0-14.3,11.7-26,26-26h98c14.3,0,26,11.7,26,26v0
	C268,378.3,256.3,390,242,390z"/>
<path class="st1" d="M1167,392h-98c-14.3,0-26-11.7-26-26v0c0-14.3,11.7-26,26-26h98c14.3,0,26,11.7,26,26v0
	C1193,380.3,1181.3,392,1167,392z"/>
<path class="st4" d="M859,390h-98c-14.3,0-26-11.7-26-26v0c0-14.3,11.7-26,26-26h98c14.3,0,26,11.7,26,26v0
	C885,378.3,873.3,390,859,390z"/>
<path class="st5" d="M1562,959h-98c-14.3,0-26-11.7-26-26l0,0c0-14.3,11.7-26,26-26h98c14.3,0,26,11.7,26,26l0,0
	C1588,947.3,1576.3,959,1562,959z"/>
<path class="st1" d="M2107,903h-98c-14.3,0-26-11.7-26-26v-2c0-14.3,11.7-26,26-26h98c14.3,0,26,11.7,26,26v2
	C2133,891.3,2121.3,903,2107,903z"/>
<path class="st6" d="M513,390h-98c-14.3,0-26-11.7-26-26v0c0-14.3,11.7-26,26-26h98c14.3,0,26,11.7,26,26v0
	C539,378.3,527.3,390,513,390z"/>
<path class="st1" d="M568,326h-48c-14.3,0-26-11.7-26-26v0c0-14.3,11.7-26,26-26h48c14.3,0,26,11.7,26,26v0
	C594,314.3,582.3,326,568,326z"/>
<path class="st1" d="M351,390h-48c-14.3,0-26-11.7-26-26v0c0-14.3,11.7-26,26-26h48c14.3,0,26,11.7,26,26v0
	C377,378.3,365.3,390,351,390z"/>
<path class="st1" d="M570,390L570,390c-14.3,0-26-11.7-26-26v0c0-14.3,11.7-26,26-26l0,0c14.3,0,26,11.7,26,26v0
	C596,378.3,584.3,390,570,390z"/>
<path class="st1" d="M514,634h-48c-14.3,0-26-11.7-26-26l0,0c0-14.3,11.7-26,26-26h48c14.3,0,26,11.7,26,26l0,0
	C540,622.3,528.3,634,514,634z"/>
<path class="st1" d="M513,699h-98c-14.3,0-26-11.7-26-26l0,0c0-14.3,11.7-26,26-26h98c14.3,0,26,11.7,26,26l0,0
	C539,687.3,527.3,699,513,699z"/>
<path class="st1" d="M188,634h-48c-14.3,0-26-11.7-26-26l0,0c0-14.3,11.7-26,26-26h48c14.3,0,26,11.7,26,26l0,0
	C214,622.3,202.3,634,188,634z"/>
<path class="st7" d="M188,454h-48c-14.3,0-26-11.7-26-26v0c0-14.3,11.7-26,26-26h48c14.3,0,26,11.7,26,26v0
	C214,442.3,202.3,454,188,454z"/>
<path class="st1" d="M255,518h-48c-14.3,0-26-11.7-26-26v0c0-14.3,11.7-26,26-26h48c14.3,0,26,11.7,26,26v0
	C281,506.3,269.3,518,255,518z"/>
<path class="st1" d="M188,576h-48c-14.3,0-26-11.7-26-26l0,0c0-14.3,11.7-26,26-26h48c14.3,0,26,11.7,26,26l0,0
	C214,564.3,202.3,576,188,576z"/>
<path class="st1" d="M254,453L254,453c-14.3,0-26-11.7-26-26v0c0-14.3,11.7-26,26-26h0c14.3,0,26,11.7,26,26v0
	C280,441.3,268.3,453,254,453z"/>
<path class="st1" d="M144,518L144,518c-14.3,0-26-11.7-26-26v0c0-14.3,11.7-26,26-26h0c14.3,0,26,11.7,26,26v0
	C170,506.3,158.3,518,144,518z"/>
<path class="st2" d="M254,576L254,576c-14.3,0-26-11.7-26-26l0,0c0-14.3,11.7-26,26-26h0c14.3,0,26,11.7,26,26l0,0
	C280,564.3,268.3,576,254,576z"/>
<path class="st8" d="M355,699H207c-14.3,0-26-11.7-26-26l0,0c0-14.3,11.7-26,26-26h148c14.3,0,26,11.7,26,26l0,0
	C381,687.3,369.3,699,355,699z"/>
<path class="st1" d="M188,764h-48c-14.3,0-26-11.7-26-26l0,0c0-14.3,11.7-26,26-26h48c14.3,0,26,11.7,26,26l0,0
	C214,752.3,202.3,764,188,764z"/>
<path class="st1" d="M144,699L144,699c-14.3,0-26-11.7-26-26l0,0c0-14.3,11.7-26,26-26h0c14.3,0,26,11.7,26,26l0,0
	C170,687.3,158.3,699,144,699z"/>
<path class="st9" d="M247,829H139c-14.3,0-26-11.7-26-26l0,0c0-14.3,11.7-26,26-26h108c14.3,0,26,11.7,26,26l0,0
	C273,817.3,261.3,829,247,829z"/>
<path class="st1" d="M252,894h-48c-14.3,0-26-11.7-26-26l0,0c0-14.3,11.7-26,26-26h48c14.3,0,26,11.7,26,26l0,0
	C278,882.3,266.3,894,252,894z"/>
<path class="st1" d="M144,894L144,894c-14.3,0-26-11.7-26-26l0,0c0-14.3,11.7-26,26-26h0c14.3,0,26,11.7,26,26l0,0
	C170,882.3,158.3,894,144,894z"/>
<path class="st1" d="M254,764L254,764c-14.3,0-26-11.7-26-26l0,0c0-14.3,11.7-26,26-26h0c14.3,0,26,11.7,26,26l0,0
	C280,752.3,268.3,764,254,764z"/>
<path class="st10" d="M247,959H139c-14.3,0-26-11.7-26-26l0,0c0-14.3,11.7-26,26-26h108c14.3,0,26,11.7,26,26l0,0
	C273,947.3,261.3,959,247,959z"/>
<path class="st8" d="M1761,636h-48c-14.3,0-26-11.7-26-26l0,0c0-14.3,11.7-26,26-26h48c14.3,0,26,11.7,26,26l0,0
	C1787,624.3,1775.3,636,1761,636z"/>
<path class="st1" d="M1479,705h-48c-14.3,0-26-11.7-26-26l0,0c0-14.3,11.7-26,26-26h48c14.3,0,26,11.7,26,26l0,0
	C1505,693.3,1493.3,705,1479,705z"/>
<path class="st1" d="M1744,390L1744,390c-14.3,0-26-11.7-26-26v0c0-14.3,11.7-26,26-26l0,0c14.3,0,26,11.7,26,26v0
	C1770,378.3,1758.3,390,1744,390z"/>
<path class="st1" d="M1003,392h-88c-14.3,0-26-11.7-26-26v0c0-14.3,11.7-26,26-26h88c14.3,0,26,11.7,26,26v0
	C1029,380.3,1017.3,392,1003,392z"/>
<path class="st1" d="M1096,326L1096,326c-14.3,0-26-11.7-26-26v0c0-14.3,11.7-26,26-26l0,0c14.3,0,26,11.7,26,26v0
	C1122,314.3,1110.3,326,1096,326z"/>
<path class="st11" d="M1167.7,326.6L1167.7,326.6c-14.1,2.6-27.7-6.8-30.3-20.9v0c-2.6-14.1,6.8-27.7,20.9-30.3v0
	c14.1-2.6,27.7,6.8,30.3,20.9v0C1191.2,310.4,1181.8,324,1167.7,326.6z"/>
<path class="st1" d="M731,454h-48c-14.3,0-26-11.7-26-26v0c0-14.3,11.7-26,26-26h48c14.3,0,26,11.7,26,26v0
	C757,442.3,745.3,454,731,454z"/>
<path class="st1" d="M791,454L791,454c-14.3,0-26-11.7-26-26v0c0-14.3,11.7-26,26-26l0,0c14.3,0,26,11.7,26,26v0
	C817,442.3,805.3,454,791,454z"/>
<path class="st1" d="M791,518H683c-14.3,0-26-11.7-26-26v0c0-14.3,11.7-26,26-26h108c14.3,0,26,11.7,26,26v0
	C817,506.3,805.3,518,791,518z"/>
<path class="st8" d="M789,582h-48c-14.3,0-26-11.7-26-26l0,0c0-14.3,11.7-26,26-26h48c14.3,0,26,11.7,26,26l0,0
	C815,570.3,803.3,582,789,582z"/>
<path class="st1" d="M681,582L681,582c-14.3,0-26-11.7-26-26l0,0c0-14.3,11.7-26,26-26l0,0c14.3,0,26,11.7,26,26l0,0
	C707,570.3,695.3,582,681,582z"/>
<path class="st1" d="M791,646H683c-14.3,0-26-11.7-26-26l0,0c0-14.3,11.7-26,26-26h108c14.3,0,26,11.7,26,26l0,0
	C817,634.3,805.3,646,791,646z"/>
<path class="st12" d="M791,710H683c-14.3,0-26-11.7-26-26l0,0c0-14.3,11.7-26,26-26h108c14.3,0,26,11.7,26,26l0,0
	C817,698.3,805.3,710,791,710z"/>
<path class="st1" d="M1164,453h-108c-14.3,0-26-11.7-26-26v0c0-14.3,11.7-26,26-26h108c14.3,0,26,11.7,26,26v0
	C1190,441.3,1178.3,453,1164,453z"/>
<path class="st1" d="M1164,518h-108c-14.3,0-26-11.7-26-26v0c0-14.3,11.7-26,26-26h108c14.3,0,26,11.7,26,26v0
	C1190,506.3,1178.3,518,1164,518z"/>
<path class="st1" d="M1058,582L1058,582c-14.3,0-26-11.7-26-26l0,0c0-14.3,11.7-26,26-26l0,0c14.3,0,26,11.7,26,26l0,0
	C1084,570.3,1072.3,582,1058,582z"/>
<path class="st1" d="M791,774L791,774c-14.3,0-26-11.7-26-26l0,0c0-14.3,11.7-26,26-26l0,0c14.3,0,26,11.7,26,26l0,0
	C817,762.3,805.3,774,791,774z"/>
<path class="st1" d="M729,772h-48c-14.3,0-26-11.7-26-26l0,0c0-14.3,11.7-26,26-26h48c14.3,0,26,11.7,26,26l0,0
	C755,760.3,743.3,772,729,772z"/>
<path class="st13" d="M1170,582h-48c-14.3,0-26-11.7-26-26l0,0c0-14.3,11.7-26,26-26h48c14.3,0,26,11.7,26,26l0,0
	C1196,570.3,1184.3,582,1170,582z"/>
<path class="st1" d="M1170,646h-108c-14.3,0-26-11.7-26-26l0,0c0-14.3,11.7-26,26-26h108c14.3,0,26,11.7,26,26l0,0
	C1196,634.3,1184.3,646,1170,646z"/>
<path class="st1" d="M1108,710h-48c-14.3,0-26-11.7-26-26l0,0c0-14.3,11.7-26,26-26h48c14.3,0,26,11.7,26,26l0,0
	C1134,698.3,1122.3,710,1108,710z"/>
<path class="st1" d="M1170,710L1170,710c-14.3,0-26-11.7-26-26l0,0c0-14.3,11.7-26,26-26l0,0c14.3,0,26,11.7,26,26l0,0
	C1196,698.3,1184.3,710,1170,710z"/>
<path class="st1" d="M1170,774h-48c-14.3,0-26-11.7-26-26l0,0c0-14.3,11.7-26,26-26h48c14.3,0,26,11.7,26,26l0,0
	C1196,762.3,1184.3,774,1170,774z"/>
<path class="st1" d="M1059,772L1059,772c-14.3,0-26-11.7-26-26l0,0c0-14.3,11.7-26,26-26l0,0c14.3,0,26,11.7,26,26l0,0
	C1085,760.3,1073.3,772,1059,772z"/>
<path class="st5" d="M1170,838h-108c-14.3,0-26-11.7-26-26l0,0c0-14.3,11.7-26,26-26h108c14.3,0,26,11.7,26,26l0,0
	C1196,826.3,1184.3,838,1170,838z"/>
<path class="st1" d="M791,840H683c-14.3,0-26-11.7-26-26l0,0c0-14.3,11.7-26,26-26h108c14.3,0,26,11.7,26,26l0,0
	C817,828.3,805.3,840,791,840z"/>
<path class="st1" d="M779,904h-98c-14.3,0-26-11.7-26-26l0,0c0-14.3,11.7-26,26-26h98c14.3,0,26,11.7,26,26l0,0
	C805,892.3,793.3,904,779,904z"/>
<path class="st1" d="M1092,902h-98c-14.3,0-26-11.7-26-26l0,0c0-14.3,11.7-26,26-26h98c14.3,0,26,11.7,26,26l0,0
	C1118,890.3,1106.3,902,1092,902z"/>
<path class="st1" d="M933,904h-88c-14.3,0-26-11.7-26-26l0,0c0-14.3,11.7-26,26-26h88c14.3,0,26,11.7,26,26l0,0
	C959,892.3,947.3,904,933,904z"/>
<path class="st1" d="M699,970h-18c-14.3,0-26-11.7-26-26l0,0c0-14.3,11.7-26,26-26h18c14.3,0,26,11.7,26,26l0,0
	C725,958.3,713.3,970,699,970z"/>
<path class="st1" d="M757,970L757,970c-14.3,0-26-11.7-26-26l0,0c0-14.3,11.7-26,26-26l0,0c14.3,0,26,11.7,26,26l0,0
	C783,958.3,771.3,970,757,970z"/>
<path class="st1" d="M1677,390h-48c-14.3,0-26-11.7-26-26v0c0-14.3,11.7-26,26-26h48c14.3,0,26,11.7,26,26v0
	C1703,378.3,1691.3,390,1677,390z"/>
<path class="st1" d="M1746,329L1746,329c-14.3,0-26-11.7-26-26v0c0-14.3,11.7-26,26-26l0,0c14.3,0,26,11.7,26,26v0
	C1772,317.3,1760.3,329,1746,329z"/>
<path class="st14" d="M1689,829h-28c-14.3,0-26-11.7-26-26l0,0c0-14.3,11.7-26,26-26h28c14.3,0,26,11.7,26,26l0,0
	C1715,817.3,1703.3,829,1689,829z"/>
<path class="st1" d="M1390,576h-48c-14.3,0-26-11.7-26-26l0,0c0-14.3,11.7-26,26-26h48c14.3,0,26,11.7,26,26l0,0
	C1416,564.3,1404.3,576,1390,576z"/>
<path class="st2" d="M1759,894h-48c-14.3,0-26-11.7-26-26l0,0c0-14.3,11.7-26,26-26h48c14.3,0,26,11.7,26,26l0,0
	C1785,882.3,1773.3,894,1759,894z"/>
<path class="st1" d="M1402,959h-48c-14.3,0-26-11.7-26-26l0,0c0-14.3,11.7-26,26-26h48c14.3,0,26,11.7,26,26l0,0
	C1428,947.3,1416.3,959,1402,959z"/>
<path class="st1" d="M2382,333h-18c-14.3,0-26-11.7-26-26v0c0-14.3,11.7-26,26-26h18c14.3,0,26,11.7,26,26v0
	C2408,321.3,2396.3,333,2382,333z"/>
<path class="st1" d="M1761,829L1761,829c-14.3,0-26-11.7-26-26l0,0c0-14.3,11.7-26,26-26l0,0c14.3,0,26,11.7,26,26l0,0
	C1787,817.3,1775.3,829,1761,829z"/>
<path class="st1" d="M1644,892L1644,892c-14.3,0-26-11.7-26-26l0,0c0-14.3,11.7-26,26-26l0,0c14.3,0,26,11.7,26,26l0,0
	C1670,880.3,1658.3,892,1644,892z"/>
<path class="st1" d="M1651,636h-18c-14.3,0-26-11.7-26-26l0,0c0-14.3,11.7-26,26-26h18c14.3,0,26,11.7,26,26l0,0
	C1677,624.3,1665.3,636,1651,636z"/>
<path class="st1" d="M1447,576L1447,576c-14.3,0-26-11.7-26-26l0,0c0-14.3,11.7-26,26-26l0,0c14.3,0,26,11.7,26,26l0,0
	C1473,564.3,1461.3,576,1447,576z"/>
<path class="st1" d="M1402,892h-48c-14.3,0-26-11.7-26-26l0,0c0-14.3,11.7-26,26-26h48c14.3,0,26,11.7,26,26l0,0
	C1428,880.3,1416.3,892,1402,892z"/>
<path class="st1" d="M1561,705h-18c-14.3,0-26-11.7-26-26l0,0c0-14.3,11.7-26,26-26h18c14.3,0,26,11.7,26,26l0,0
	C1587,693.3,1575.3,705,1561,705z"/>
<path class="st15" d="M1381,326h-48c-14.3,0-26-11.7-26-26v0c0-14.3,11.7-26,26-26h48c14.3,0,26,11.7,26,26v0
	C1407,314.3,1395.3,326,1381,326z"/>
<path class="st1" d="M1446,453h-108c-14.3,0-26-11.7-26-26v0c0-14.3,11.7-26,26-26h108c14.3,0,26,11.7,26,26v0
	C1472,441.3,1460.3,453,1446,453z"/>
<path class="st1" d="M1357,390h-18c-14.3,0-26-11.7-26-26v0c0-14.3,11.7-26,26-26h18c14.3,0,26,11.7,26,26v0
	C1383,378.3,1371.3,390,1357,390z"/>
<path class="st10" d="M1371,705h-28c-14.3,0-26-11.7-26-26l0,0c0-14.3,11.7-26,26-26h28c14.3,0,26,11.7,26,26l0,0
	C1397,693.3,1385.3,705,1371,705z"/>
<path class="st1" d="M1366,640h-18c-14.3,0-26-11.7-26-26l0,0c0-14.3,11.7-26,26-26h18c14.3,0,26,11.7,26,26l0,0
	C1392,628.3,1380.3,640,1366,640z"/>
<path class="st15" d="M2273,902h-108c-14.3,0-26-11.7-26-26l0,0c0-14.3,11.7-26,26-26h108c14.3,0,26,11.7,26,26l0,0
	C2299,890.3,2287.3,902,2273,902z"/>
<path class="st1" d="M2378,902h-48c-14.3,0-26-11.7-26-26l0,0c0-14.3,11.7-26,26-26h48c14.3,0,26,11.7,26,26l0,0
	C2404,890.3,2392.3,902,2378,902z"/>
<path class="st2" d="M1949,838L1949,838c-14.3,0-26-11.7-26-26l0,0c0-14.3,11.7-26,26-26l0,0c14.3,0,26,11.7,26,26l0,0
	C1975,826.3,1963.3,838,1949,838z"/>
<path class="st1" d="M2057,776h-108c-14.3,0-26-11.7-26-26l0,0c0-14.3,11.7-26,26-26h108c14.3,0,26,11.7,26,26l0,0
	C2083,764.3,2071.3,776,2057,776z"/>
<path class="st1" d="M1997,713h-48c-14.3,0-26-11.7-26-26l0,0c0-14.3,11.7-26,26-26h48c14.3,0,26,11.7,26,26l0,0
	C2023,701.3,2011.3,713,1997,713z"/>
<path class="st6" d="M2060,712h-4.1c-13.2,0-24-10.8-24-24V684c0-13.2,10.8-24,24-24h4.1c13.2,0,24,10.8,24,24v4.1
	C2084,701.2,2073.2,712,2060,712z"/>
<path class="st1" d="M1949,650L1949,650c-14.3,0-26-11.7-26-26l0,0c0-14.3,11.7-26,26-26l0,0c14.3,0,26,11.7,26,26l0,0
	C1975,638.3,1963.3,650,1949,650z"/>
<path class="st1" d="M2056,650h-48c-14.3,0-26-11.7-26-26l0,0c0-14.3,11.7-26,26-26h48c14.3,0,26,11.7,26,26l0,0
	C2082,638.3,2070.3,650,2056,650z"/>
<path class="st4" d="M1997,587h-48c-14.3,0-26-11.7-26-26l0,0c0-14.3,11.7-26,26-26h48c14.3,0,26,11.7,26,26l0,0
	C2023,575.3,2011.3,587,1997,587z"/>
<path class="st1" d="M2060,588h-4.1c-13.2,0-24-10.8-24-24V560c0-13.2,10.8-24,24-24h4.1c13.2,0,24,10.8,24,24v4.1
	C2084,577.2,2073.2,588,2060,588z"/>
<path class="st1" d="M2057,524h-108c-14.3,0-26-11.7-26-26v0c0-14.3,11.7-26,26-26h108c14.3,0,26,11.7,26,26v0
	C2083,512.3,2071.3,524,2057,524z"/>
<path class="st1" d="M1949,460L1949,460c-14.3,0-26-11.7-26-26v0c0-14.3,11.7-26,26-26l0,0c14.3,0,26,11.7,26,26v0
	C1975,448.3,1963.3,460,1949,460z"/>
<path class="st4" d="M2020,968h-68c-14.3,0-26-11.7-26-26l0,0c0-14.3,11.7-26,26-26h68c14.3,0,26,11.7,26,26l0,0
	C2046,956.3,2034.3,968,2020,968z"/>
<path class="st1" d="M2050,398h-98c-14.3,0-26-11.7-26-26v-2c0-14.3,11.7-26,26-26h98c14.3,0,26,11.7,26,26v2
	C2076,386.3,2064.3,398,2050,398z"/>
<path class="st7" d="M2167,335h-98c-14.3,0-26-11.7-26-26v-2c0-14.3,11.7-26,26-26h98c14.3,0,26,11.7,26,26v2
	C2193,323.3,2181.3,335,2167,335z"/>
<path class="st1" d="M2218,397h-108c-14.3,0-26-11.7-26-26v0c0-14.3,11.7-26,26-26h108c14.3,0,26,11.7,26,26v0
	C2244,385.3,2232.3,397,2218,397z"/>
<path class="st1" d="M2323,397h-48c-14.3,0-26-11.7-26-26v0c0-14.3,11.7-26,26-26h48c14.3,0,26,11.7,26,26v0
	C2349,385.3,2337.3,397,2323,397z"/>
<path class="st1" d="M2234,333L2234,333c-14.3,0-26-11.7-26-26v0c0-14.3,11.7-26,26-26l0,0c14.3,0,26,11.7,26,26v0
	C2260,321.3,2248.3,333,2234,333z"/>
<path class="st1" d="M2298,334L2298,334c-14.3,0-26-11.7-26-26v0c0-14.3,11.7-26,26-26l0,0c14.3,0,26,11.7,26,26v0
	C2324,322.3,2312.3,334,2298,334z"/>
<path class="st1" d="M2397.4,390.4L2397.4,390.4c-10.6,9.6-27.2,8.7-36.7-2v0c-9.6-10.6-8.7-27.2,2-36.7v0c10.6-9.6,27.2-8.7,36.7,2
	v0C2408.9,364.3,2408,380.8,2397.4,390.4z"/>
<path class="st1" d="M1997,333h-48c-14.3,0-26-11.7-26-26v0c0-14.3,11.7-26,26-26h48c14.3,0,26,11.7,26,26v0
	C2023,321.3,2011.3,333,1997,333z"/>
<path class="st1" d="M1951,903L1951,903c-14.3,0-26-11.7-26-26l0,0c0-14.3,11.7-26,26-26l0,0c14.3,0,26,11.7,26,26l0,0
	C1977,891.3,1965.3,903,1951,903z"/>
<path class="st8" d="M2380,968L2380,968c-14.3,0-26-11.7-26-26l0,0c0-14.3,11.7-26,26-26l0,0c14.3,0,26,11.7,26,26l0,0
	C2406,956.3,2394.3,968,2380,968z"/>
<path class="st1" d="M704,392h-28c-14.3,0-26-11.7-26-26v0c0-14.3,11.7-26,26-26h28c14.3,0,26,11.7,26,26v0
	C730,380.3,718.3,392,704,392z"/>
<path class="st1" d="M1032,326H892c-14.3,0-26-11.7-26-26v0c0-14.3,11.7-26,26-26h140c14.3,0,26,11.7,26,26v0
	C1058,314.3,1046.3,326,1032,326z"/>
<path class="st1" d="M1168,970h-140c-14.3,0-26-11.7-26-26l0,0c0-14.3,11.7-26,26-26h140c14.3,0,26,11.7,26,26l0,0
	C1194,958.3,1182.3,970,1168,970z"/>
<path class="st1" d="M1172,902h-18c-14.3,0-26-11.7-26-26l0,0c0-14.3,11.7-26,26-26h18c14.3,0,26,11.7,26,26l0,0
	C1198,890.3,1186.3,902,1172,902z"/>
<path class="st1" d="M1764,764h-106c-14.3,0-26-11.7-26-26l0,0c0-14.3,11.7-26,26-26h106c14.3,0,26,11.7,26,26l0,0
	C1790,752.3,1778.3,764,1764,764z"/>
<path class="st9" d="M1448,515h-48c-14.3,0-26-11.7-26-26v0c0-14.3,11.7-26,26-26h48c14.3,0,26,11.7,26,26v0
	C1474,503.3,1462.3,515,1448,515z"/>
<path class="st1" d="M1343,515L1343,515c-14.3,0-26-11.7-26-26v0c0-14.3,11.7-26,26-26l0,0c14.3,0,26,11.7,26,26v0
	C1369,503.3,1357.3,515,1343,515z"/>
<path class="st10" d="M2056,460h-48c-14.3,0-26-11.7-26-26v0c0-14.3,11.7-26,26-26h48c14.3,0,26,11.7,26,26v0
	C2082,448.3,2070.3,460,2056,460z"/>
<path class="st1" d="M2056,838h-48c-14.3,0-26-11.7-26-26l0,0c0-14.3,11.7-26,26-26h48c14.3,0,26,11.7,26,26l0,0
	C2082,826.3,2070.3,838,2056,838z"/>
<path class="st1" d="M2310,968h-18c-14.3,0-26-11.7-26-26l0,0c0-14.3,11.7-26,26-26h18c14.3,0,26,11.7,26,26l0,0
	C2336,956.3,2324.3,968,2310,968z"/>
<g>
	<path class="st1" d="M1692.4,1183.4c-4.5,3.1-6.8,7.4-6.8,13.1c0,2.1,0.4,4.2,1.1,6c0.7,1.9,1.8,3.5,3.3,4.8
		c1.5,1.3,3.3,2.4,5.6,3.2s4.9,1.2,8.1,1.2c3,0,5.8-0.4,8.4-1.1c2.6-0.7,5-1.7,7.1-2.9c2.1-1.2,3.9-2.6,5.5-4.2
		c1.5-1.6,2.8-3.2,3.7-4.8v-19.8h-14.8C1703.9,1178.8,1696.9,1180.3,1692.4,1183.4z"/>
	<path class="st1" d="M119.4,1051v239h2275v-239H119.4z M429.4,1144.2l-55.5,20.2l-6.3,2.2l6.3,2.1l55.5,19.9v23.4l-84.6-36.4v-18.6
		l84.6-36.3V1144.2z M671.2,1105.7h-30.8v103.4h30.8v19.3h-84.6v-19.3h30.1v-103.4h-30.1v-19.4h84.6V1105.7z M791.3,1105.7h-30.8
		v103.4h30.8v19.3h-84.6v-19.3h30.1v-103.4h-30.1v-19.4h84.6V1105.7z M911.3,1105.7h-30.8v103.4h30.8v19.3h-84.6v-19.3h30.1v-103.4
		h-30.1v-19.4h84.6V1105.7z M1044.3,1105.6h-43.7v122.9h-23.3v-122.9h-43.4v-19.3h110.4V1105.6z M1260.5,1228.5l-38.1-61.8
		l-15.2,17.1v44.7h-23.7v-142.2h23.7v66.6l13-16.9l37.4-49.7h28.6l-48.3,62.4l50.8,79.8H1260.5z M1395.6,1228.5h-23.9
		c-0.7-1.3-1.2-2.8-1.6-4.6c-0.4-1.8-0.8-3.6-1.1-5.7c-1.6,1.7-3.5,3.3-5.5,4.7s-4.3,2.8-6.8,3.9c-2.5,1.1-5.2,2-8.1,2.6
		c-2.9,0.7-6,1-9.3,1c-5.6,0-10.7-0.8-15.2-2.4c-4.5-1.6-8.4-3.8-11.6-6.6s-5.7-6.2-7.5-10c-1.8-3.8-2.6-8-2.6-12.5
		c0-11.3,4.2-20,12.6-26c8.4-6,20.5-9,36.3-9h17.1v-6.9c0-5.6-1.9-10-5.7-13.3c-3.8-3.3-9.1-4.9-16-4.9c-3.1,0-5.9,0.4-8.2,1.1
		c-2.3,0.7-4.3,1.8-5.9,3.1c-1.6,1.3-2.7,2.8-3.5,4.6s-1.2,3.6-1.2,5.7h-23.3c0-4.1,1-8.1,2.9-12c1.9-3.9,4.7-7.3,8.4-10.4
		s8.3-5.5,13.6-7.3c5.4-1.8,11.5-2.7,18.4-2.7c6.3,0,12,0.8,17.4,2.3c5.3,1.5,10,3.8,13.9,6.8s7,6.8,9.2,11.3
		c2.2,4.5,3.3,9.8,3.3,15.9v47.1c0,4.6,0.3,8.8,1,12.6s1.7,7.1,3,9.9V1228.5z M1453.2,1240.7h-21.3l56.3-154.4h21.3L1453.2,1240.7z
		 M1592.2,1244.5c-1.2,2.7-2.7,5.5-4.6,8.6c-1.9,3.1-4.2,6-7,8.6c-2.8,2.7-6.1,4.9-9.9,6.7c-3.8,1.8-8.3,2.7-13.5,2.7
		c-2.1,0-4.3-0.2-6.5-0.5c-2.2-0.4-4.1-0.8-5.8-1.2l3.3-18.2c0.5,0,1.1,0,1.9,0c0.8,0,1.6,0.1,2.4,0.1c0.8,0.1,1.6,0.1,2.4,0.1
		c0.7,0,1.4,0,1.8,0c2.3,0,4.3-0.7,6.1-2c1.8-1.3,3.4-2.9,4.7-4.6c1.4-1.7,2.5-3.4,3.4-5.1s1.5-2.8,1.9-3.4l6.9-13.1l-44.9-100.7
		h25.8l25.5,63.4l4,12.7l29.7-76.1h25.9L1592.2,1244.5z M1755.6,1228.5h-23.9c-0.7-1.3-1.2-2.8-1.6-4.6c-0.4-1.8-0.8-3.6-1.1-5.7
		c-1.6,1.7-3.5,3.3-5.5,4.7s-4.3,2.8-6.8,3.9c-2.5,1.1-5.2,2-8.1,2.6c-2.9,0.7-6,1-9.3,1c-5.6,0-10.7-0.8-15.2-2.4
		c-4.5-1.6-8.4-3.8-11.6-6.6s-5.7-6.2-7.5-10c-1.8-3.8-2.6-8-2.6-12.5c0-11.3,4.2-20,12.6-26c8.4-6,20.5-9,36.3-9h17.1v-6.9
		c0-5.6-1.9-10-5.7-13.3c-3.8-3.3-9.1-4.9-16-4.9c-3.1,0-5.9,0.4-8.2,1.1c-2.3,0.7-4.3,1.8-5.9,3.1c-1.6,1.3-2.7,2.8-3.5,4.6
		s-1.2,3.6-1.2,5.7h-23.3c0-4.1,1-8.1,2.9-12c1.9-3.9,4.7-7.3,8.4-10.4s8.3-5.5,13.6-7.3c5.4-1.8,11.5-2.7,18.4-2.7
		c6.3,0,12,0.8,17.4,2.3c5.3,1.5,10,3.8,13.9,6.8s7,6.8,9.2,11.3c2.2,4.5,3.3,9.8,3.3,15.9v47.1c0,4.6,0.3,8.8,1,12.6s1.7,7.1,3,9.9
		V1228.5z M1875.4,1228.5h-23.3v-65.6c0-4.4-0.5-8-1.5-10.9c-1-2.9-2.4-5.3-4.3-7s-4.1-3-6.8-3.8c-2.7-0.7-5.7-1.1-9.1-1.1
		c-5.1,0-9.6,1.1-13.4,3.4c-3.8,2.3-6.9,5.4-9.2,9.3v75.8h-23.4v-105.7h21.1l1.5,14.6c3.8-5.3,8.5-9.4,13.9-12.3
		c5.4-2.9,11.5-4.3,18.1-4.3c5.4,0,10.3,0.8,14.8,2.3c4.5,1.6,8.3,4,11.5,7.3s5.7,7.6,7.5,12.9c1.8,5.3,2.7,11.6,2.7,19V1228.5z
		 M1927,1228.5h-20v-20h20V1228.5z M1927,1144.9h-20v-20h20V1144.9z M2168.5,1175.8l-87.2,36.4V1189l58.6-20.8l6.3-2l-6.3-2.1
		l-58.6-20.4v-23l87.2,36.3V1175.8z"/>
	<path class="st1" d="M1332.3,1183.4c-4.5,3.1-6.8,7.4-6.8,13.1c0,2.1,0.4,4.2,1.1,6c0.7,1.9,1.8,3.5,3.3,4.8
		c1.5,1.3,3.3,2.4,5.6,3.2s4.9,1.2,8.1,1.2c3,0,5.8-0.4,8.4-1.1c2.6-0.7,5-1.7,7.1-2.9c2.1-1.2,3.9-2.6,5.5-4.2
		c1.5-1.6,2.8-3.2,3.7-4.8v-19.8h-14.8C1343.9,1178.8,1336.8,1180.3,1332.3,1183.4z"/>
</g>
</svg>
